Coordinates
version=1
nRows=16
nColumns=36
inDegrees=yes

Units are S.I. units (second, meters, Newtons, ...)
If the header above contains a line with 'inDegrees', this indicates whether rotational values are in degrees (yes) or radians (no).

endheader
time	pelvis_tilt	pelvis_list	pelvis_rotation	pelvis_tx	pelvis_ty	pelvis_tz	hip_flexion_r	hip_adduction_r	hip_rotation_r	knee_angle_r	knee_angle_r_beta	ankle_angle_r	subtalar_angle_r	mtp_angle_r	hip_flexion_l	hip_adduction_l	hip_rotation_l	knee_angle_l	knee_angle_l_beta	ankle_angle_l	subtalar_angle_l	mtp_angle_l	lumbar_extension	lumbar_bending	lumbar_rotation	arm_flex_r	arm_add_r	arm_rot_r	elbow_flex_r	pro_sup_r	arm_flex_l	arm_add_l	arm_rot_l	elbow_flex_l	pro_sup_l
      0.00000000	     -3.00557129	     -0.52893368	      1.91899594	     -0.04757590	      1.25411401	     -0.07792842	     -0.28967735	     -0.67225800	     -3.00594101	      7.04807614	      0.12301213	      7.06831913	     -7.30606978	     -6.76287957	      3.53857632	     -1.44113887	     -1.20787298	      9.51120829	      0.16600190	     13.29987467	     -8.93769096	     -6.76287957	      2.04451590	      0.83279402	     -2.99198770	     -1.36409674	    -11.24588329	      3.80816262	     24.26536585	     89.94203283	     -1.64448015	    -11.33568741	      7.23605114	     18.12140857	     87.91769947
      0.01666670	     -2.34160252	     -0.41325615	      1.28203186	     -0.04708246	      1.25403480	     -0.07808702	     -2.42449836	     -0.42908656	     -3.80995140	      4.12712492	      0.07203192	      6.62206233	     -8.86787397	     -6.75792430	      1.44285597	     -1.11187160	     -3.52237776	      7.24288928	      0.12641227	     12.99891207	     -9.11487684	     -6.75792430	      1.41905139	      0.74138821	     -2.73379530	     -1.38765967	    -11.60893159	      4.07839409	     23.40182312	     90.50500613	     -2.20518517	    -11.26777323	      6.55689423	     18.13758847	     87.99543353
      0.03333330	     -2.11661226	     -0.23355972	      1.00374096	     -0.04681752	      1.25226721	     -0.07757109	     -2.81674399	     -0.39592986	     -4.42808635	      3.92734475	      0.06854510	      8.02314691	     -8.78915731	     -7.02384113	      0.87117043	     -0.79946304	     -4.64008130	      6.96321034	      0.12153095	     13.40420951	     -9.49767166	     -7.02384113	      1.27436739	      0.55945855	     -4.61908104	     -0.27767954	    -11.92918802	      6.86463669	     22.50054931	     97.51274207	     -4.13760130	    -10.97400148	     -0.51232941	     20.17040149	     92.80565488
      0.05000000	     -1.95127532	     -0.18704702	      0.97525962	     -0.04727263	      1.25223557	     -0.07763567	     -3.12970975	     -0.30689311	     -5.28113972	      3.64940289	      0.06369410	      8.29643046	     -9.76900933	     -7.13363724	      0.74944017	     -0.68250267	     -5.69754163	      7.14198842	      0.12465121	     13.99906948	     -9.40372505	     -7.13363724	      1.09121773	      0.46871568	     -5.18117482	      0.07812565	    -12.25542671	      8.31118854	     22.27626629	     98.11632569	     -4.46843698	    -11.05868340	     -0.68163795	     20.58241931	     93.64329332
      0.06666670	     -1.73134428	      0.02487018	      0.78783411	     -0.04782861	      1.25247166	     -0.07766286	     -3.22007631	     -0.46169004	     -5.72902851	      3.86402680	      0.06743999	      9.14189519	    -10.23687653	     -7.16109623	      0.75599058	     -0.40758246	     -5.85718806	      7.57447626	      0.13219955	     14.50501426	     -9.55872702	     -7.16109623	      0.69486107	      0.22907205	     -5.16518055	      0.14405737	    -12.29378063	      8.41299782	     22.38687839	     97.58249129	     -4.53385960	    -11.03767572	     -1.04181700	     21.05351357	     93.07962898
      0.08333330	     -1.77140741	      0.13772814	      0.58052676	     -0.04821039	      1.25261576	     -0.07732322	     -3.06351218	     -0.56254221	     -6.14869277	      4.07342052	      0.07109460	      9.41042888	    -10.70485583	     -7.30435553	      0.94248899	     -0.30315659	     -6.17640830	      7.82989945	      0.13665753	     14.74692338	     -9.45746125	     -7.30435553	      0.74476805	      0.11131524	     -5.77600616	      0.92757157	    -12.22753853	      9.36529188	     21.61657852	    101.54327964	     -5.47134117	    -10.63508397	     -4.72835339	     21.63475870	     97.60161748
      0.10000000	     -1.90746009	      0.30800694	      0.30930858	     -0.04816250	      1.25564299	     -0.07712431	     -2.74779672	     -0.75854436	     -6.35408799	      4.33665585	      0.07568892	      9.49435334	    -11.15594727	     -7.33716298	      1.19553919	     -0.12057809	     -6.37464886	      7.93634479	      0.13851535	     14.85179078	     -9.26246662	     -7.33716298	      0.86361759	     -0.04360548	     -5.66782701	      1.12193525	    -12.17965295	     10.09860121	     21.19971740	    100.21965026	     -5.63979303	    -10.66978589	     -4.08361429	     21.37091120	     96.38869312
      0.11666670	     -1.93466681	      0.35303043	      0.13447305	     -0.05901876	      1.25544427	     -0.07350927	     -2.44345525	     -0.78030638	     -6.80394141	      4.65819558	      0.08130085	      9.49158168	    -11.39889270	     -7.33791467	      1.42617170	     -0.11747918	     -6.61555994	      8.09327938	      0.14125437	     14.70054474	     -9.28450899	     -7.33791467	      0.55528738	     -0.09547140	     -5.62925726	      1.33320537	    -12.08617624	     10.14406175	     21.22727816	    100.29250677	     -5.49250415	    -10.77477983	     -4.07126465	     21.43617193	     96.45561243
      0.13333330	     -2.22726476	      0.45810630	     -0.07987278	     -0.05902563	      1.25503229	     -0.07336042	     -1.75003021	     -0.89789897	     -6.84933486	      5.25551682	      0.09172607	      9.29821129	    -12.17517554	     -7.38686829	      1.94100296	     -0.04175134	     -6.96651613	      8.31165201	      0.14506569	     14.55350675	     -9.33132262	     -7.38686829	      0.79130952	     -0.21735970	     -5.71364529	      1.99166122	    -12.00476594	     12.17569578	     19.94574605	     98.89897607	     -5.59894536	    -10.95344184	     -2.60094099	     21.22369602	     94.92396124
      0.15000000	     -2.15363008	      0.49065934	     -0.15071019	     -0.04832038	      1.25536253	     -0.07650080	     -1.80343713	     -0.93333095	     -7.13729398	      5.44593541	      0.09504950	      9.17712471	    -12.26669596	     -7.38714013	      1.84247748	     -0.00020786	     -7.08059670	      8.26191007	      0.14419753	     14.50252246	     -9.34457264	     -7.38714013	      0.67621011	     -0.22349465	     -5.62700685	      1.82562018	    -12.04482124	     12.18942198	     19.93337184	     98.96185000	     -5.87590711	    -10.89143522	     -2.61017039	     21.18658799	     94.97757742
      0.16666670	     -1.96670829	      0.60602388	     -0.23142380	     -0.04821043	      1.25547439	     -0.07639028	     -1.95889528	     -1.06903021	     -7.30769372	      5.73192020	      0.10004088	      8.95694039	    -12.52022169	     -7.43083894	      1.46385704	      0.15148247	     -7.31719465	      7.92300851	      0.13828259	     14.28167754	     -9.19965197	     -7.43083894	      0.38731808	     -0.36023832	     -5.73449823	      1.56231834	    -12.01766775	     10.56914370	     20.24360793	    104.74766789	     -6.37964914	    -10.62314794	     -5.83412545	     22.20495292	    101.04678865
      0.18333330	     -1.95769467	      0.63612525	     -0.21827623	     -0.04820098	      1.25211095	     -0.07616021	     -1.97692182	     -1.06963143	     -7.31347056	      5.93182543	      0.10352988	      8.73961638	    -12.90422940	     -7.42946260	      1.39405487	      0.20792337	     -7.48143515	      7.83430491	      0.13673442	     14.32211684	     -9.04183412	     -7.42946260	      0.47228223	     -0.38678924	     -5.65725695	      1.20996125	    -12.01571477	     10.03258687	     20.04090142	    105.23686246	     -6.71797780	    -10.57263448	     -5.96213969	     22.39616143	    101.34862264
      0.20000000	     -1.89523032	      0.66708408	     -0.13712846	     -0.04761723	      1.25204687	     -0.07624952	     -2.07231569	     -1.09348901	     -7.46369157	      6.09678461	      0.10640897	      8.72294941	    -12.95108810	     -7.43873719	      1.19992172	      0.29787295	     -7.36173984	      7.73179403	      0.13494526	     14.13240395	     -9.19028320	     -7.43873719	      0.48026655	     -0.40802012	     -5.75865850	      1.03148014	    -12.08550353	     10.40113914	     19.70628737	    105.34350397	     -7.07830970	    -10.54802680	     -5.79691499	     22.64464380	    101.19365491
      0.21666670	     -1.84635328	      0.68710284	     -0.07602842	     -0.04740965	      1.25223750	     -0.07623311	     -2.23836105	     -1.09264486	     -7.47342410	      6.12916586	      0.10697412	      8.51279454	    -13.22176078	     -7.45455247	      0.99195871	      0.35856362	     -7.26914544	      7.58916849	      0.13245598	     14.09684192	     -9.22198904	     -7.45455247	      0.56401425	     -0.44100793	     -5.90417064	      0.82434184	    -12.13040149	     10.80751568	     19.09352657	    104.66132466	     -7.39965457	    -10.52716782	     -5.53375675	     22.74004146	    100.07153055
      0.23333330	     -1.78433531	      0.64320041	      0.03407607	     -0.03741391	      1.25236094	     -0.07280026	     -2.42387155	     -1.02589721	     -7.50224992	      6.20869610	      0.10836219	      8.57366677	    -13.26578969	     -7.45475108	      0.67499297	      0.31928705	     -7.23963632	      7.43244344	      0.12972061	     14.05655149	     -9.20319243	     -7.45475108	      0.67817657	     -0.40641197	     -5.89604892	      0.37756816	    -12.21823272	     10.81254317	     18.92425003	    104.70266645	     -7.77292597	    -10.46622692	     -5.55672278	     22.69294930	    100.10453447
      0.25000000	     -1.62242634	      0.63775927	      0.06572840	     -0.03711223	      1.25268321	     -0.07274902	     -2.89176488	     -0.95763690	     -7.47787214	      5.97085665	      0.10421111	      8.38386498	    -13.28679820	     -7.46082167	      0.22542616	      0.34040150	     -7.09534353	      7.09213434	      0.12378110	     13.87381665	     -9.32161056	     -7.46082167	      0.66191283	     -0.44985650	     -5.95363512	      0.24093822	    -12.21007041	     10.20806882	     18.62914077	    106.69928685	     -8.40164191	    -10.31767109	     -6.77694452	     23.24142390	    101.80570383
